<svg width="18" height="18" viewBox="0 0 16 16" fill="none" xmlns="http://www.w3.org/2000/svg">
<mask id="path-1-inside-1_10909_128103" fill="white">
<path d="M0 6.4C0 4.15979 0 3.03969 0.435974 2.18404C0.819467 1.43139 1.43139 0.819467 2.18404 0.435974C3.03969 0 4.15979 0 6.4 0H9.6C11.8402 0 12.9603 0 13.816 0.435974C14.5686 0.819467 15.1805 1.43139 15.564 2.18404C16 3.03969 16 4.15979 16 6.4V9.6C16 11.8402 16 12.9603 15.564 13.816C15.1805 14.5686 14.5686 15.1805 13.816 15.564C12.9603 16 11.8402 16 9.6 16H6.4C4.15979 16 3.03969 16 2.18404 15.564C1.43139 15.1805 0.819467 14.5686 0.435974 13.816C0 12.9603 0 11.8402 0 9.6V6.4Z"/>
</mask>
<path d="M0 6.4C0 4.15979 0 3.03969 0.435974 2.18404C0.819467 1.43139 1.43139 0.819467 2.18404 0.435974C3.03969 0 4.15979 0 6.4 0H9.6C11.8402 0 12.9603 0 13.816 0.435974C14.5686 0.819467 15.1805 1.43139 15.564 2.18404C16 3.03969 16 4.15979 16 6.4V9.6C16 11.8402 16 12.9603 15.564 13.816C15.1805 14.5686 14.5686 15.1805 13.816 15.564C12.9603 16 11.8402 16 9.6 16H6.4C4.15979 16 3.03969 16 2.18404 15.564C1.43139 15.1805 0.819467 14.5686 0.435974 13.816C0 12.9603 0 11.8402 0 9.6V6.4Z" fill="#F7F7F7"/>
<path d="M-1 4C-1 1.23858 1.23858 -1 4 -1H12C14.7614 -1 17 1.23858 17 4H15C15 2.34315 13.6569 1 12 1H4C2.34315 1 1 2.34315 1 4H-1ZM17 13C17 15.7614 14.7614 18 12 18H4C1.23858 18 -1 15.7614 -1 13L1 12C1 13.1046 2.34315 14 4 14H12C13.6569 14 15 13.1046 15 12L17 13ZM4 18C1.23858 18 -1 15.7614 -1 13V4C-1 1.23858 1.23858 -1 4 -1V1C2.34315 1 1 2.34315 1 4V12C1 13.1046 2.34315 14 4 14V18ZM12 -1C14.7614 -1 17 1.23858 17 4V13C17 15.7614 14.7614 18 12 18V14C13.6569 14 15 13.1046 15 12V4C15 2.34315 13.6569 1 12 1V-1Z" fill="black" fill-opacity="0.26" mask="url(#path-1-inside-1_10909_128103)"/>
<path d="M5.91681 11.1562C5.60195 11.1562 5.31549 11.0805 5.05744 10.929C4.79939 10.7751 4.59342 10.5691 4.43954 10.3111C4.28566 10.0507 4.20872 9.7642 4.20872 9.4517C4.20872 9.13447 4.28566 8.84683 4.43954 8.58878C4.59342 8.33073 4.79939 8.12476 5.05744 7.97088C5.31786 7.817 5.60313 7.74006 5.91326 7.74006H6.57377V6.98011H5.91326C5.60313 6.98011 5.31786 6.90436 5.05744 6.75284C4.79939 6.59896 4.59342 6.39299 4.43954 6.13494C4.28566 5.87689 4.20872 5.59044 4.20872 5.27557C4.20872 4.9607 4.28566 4.67424 4.43954 4.41619C4.59342 4.15814 4.79939 3.95336 5.05744 3.80185C5.31786 3.64796 5.60313 3.57102 5.91326 3.57102C6.2305 3.57102 6.51814 3.64796 6.77619 3.80185C7.03424 3.95336 7.2402 4.15814 7.39409 4.41619C7.55034 4.67424 7.62846 4.9607 7.62846 5.27557V5.92898H8.38485V5.27557C8.38485 4.9607 8.46061 4.67424 8.61213 4.41619C8.76601 4.15814 8.97198 3.95336 9.23003 3.80185C9.48807 3.64796 9.77453 3.57102 10.0894 3.57102C10.4043 3.57102 10.6907 3.64796 10.9488 3.80185C11.2068 3.95336 11.4128 4.15814 11.5667 4.41619C11.7206 4.67424 11.7975 4.9607 11.7975 5.27557C11.7975 5.59044 11.7206 5.87689 11.5667 6.13494C11.4128 6.39299 11.2068 6.59896 10.9488 6.75284C10.6907 6.90436 10.4043 6.98011 10.0894 6.98011H9.43954V7.74006H10.0894C10.4043 7.74006 10.6907 7.817 10.9488 7.97088C11.2068 8.12476 11.4128 8.33073 11.5667 8.58878C11.7206 8.84683 11.7975 9.13447 11.7975 9.4517C11.7975 9.7642 11.7206 10.0507 11.5667 10.3111C11.4128 10.5691 11.2068 10.7751 10.9488 10.929C10.6907 11.0805 10.4043 11.1562 10.0894 11.1562C9.77453 11.1562 9.48807 11.0805 9.23003 10.929C8.97198 10.7751 8.76601 10.5691 8.61213 10.3111C8.46061 10.0507 8.38485 9.7642 8.38485 9.4517V8.79119H7.62846V9.4517C7.62846 9.7642 7.55034 10.0507 7.39409 10.3111C7.2402 10.5691 7.03424 10.7751 6.77619 10.929C6.51814 11.0805 6.23168 11.1562 5.91681 11.1562ZM5.91326 10.1051C6.034 10.1051 6.14409 10.0755 6.24352 10.0163C6.34295 9.95715 6.42226 9.87784 6.48145 9.77841C6.543 9.67898 6.57377 9.57008 6.57377 9.4517V8.79119H5.91326C5.79489 8.79119 5.68599 8.82197 5.58656 8.88352C5.48713 8.94271 5.40782 9.02202 5.34863 9.12145C5.29181 9.22088 5.26341 9.33097 5.26341 9.4517C5.26341 9.57008 5.29181 9.67898 5.34863 9.77841C5.40782 9.87784 5.48713 9.95715 5.58656 10.0163C5.68599 10.0755 5.79489 10.1051 5.91326 10.1051ZM5.91326 5.92898H6.57377V5.27557C6.57377 5.15483 6.543 5.04593 6.48145 4.94886C6.42226 4.84943 6.34295 4.77012 6.24352 4.71094C6.14409 4.65175 6.034 4.62216 5.91326 4.62216C5.79489 4.62216 5.68599 4.65175 5.58656 4.71094C5.48713 4.77012 5.40782 4.84943 5.34863 4.94886C5.29181 5.04593 5.26341 5.15483 5.26341 5.27557C5.26341 5.39631 5.29181 5.50639 5.34863 5.60582C5.40782 5.70526 5.48713 5.78456 5.58656 5.84375C5.68599 5.90057 5.79489 5.92898 5.91326 5.92898ZM9.43954 5.92898H10.0894C10.2101 5.92898 10.319 5.90057 10.4161 5.84375C10.5155 5.78456 10.5948 5.70526 10.654 5.60582C10.7132 5.50639 10.7428 5.39631 10.7428 5.27557C10.7428 5.15483 10.7132 5.04593 10.654 4.94886C10.5948 4.84943 10.5155 4.77012 10.4161 4.71094C10.319 4.65175 10.2101 4.62216 10.0894 4.62216C9.96866 4.62216 9.85858 4.65175 9.75914 4.71094C9.65971 4.77012 9.58159 4.84943 9.52477 4.94886C9.46795 5.04593 9.43954 5.15483 9.43954 5.27557V5.92898ZM10.0894 10.1051C10.2101 10.1051 10.319 10.0755 10.4161 10.0163C10.5155 9.95715 10.5948 9.87784 10.654 9.77841C10.7132 9.67898 10.7428 9.57008 10.7428 9.4517C10.7428 9.33097 10.7132 9.22088 10.654 9.12145C10.5948 9.02202 10.5155 8.94271 10.4161 8.88352C10.319 8.82197 10.2101 8.79119 10.0894 8.79119H9.43954V9.4517C9.43954 9.57008 9.46795 9.67898 9.52477 9.77841C9.58395 9.87784 9.66208 9.95715 9.75914 10.0163C9.85858 10.0755 9.96866 10.1051 10.0894 10.1051ZM7.62846 7.74006H8.38485V6.98011H7.62846V7.74006Z" fill="black" fill-opacity="0.55"/>
</svg>
