<?xml version="1.0" encoding="UTF-8"?>
<svg id="Calque_1" data-name="Calque 1" xmlns="http://www.w3.org/2000/svg" width="18" height="18" xmlns:xlink="http://www.w3.org/1999/xlink" viewBox="0 0 18 19">
  <defs>
    <mask id="mask" x="0" y="0" width="18" height="19" maskUnits="userSpaceOnUse">
      <g id="path-1-inside-1_10909_128103" data-name="path-1-inside-1 10909 128103">
        <path d="M1,7.4c0-2.24021,0-3.36031.43597-4.21596.38349-.75265.99542-1.36457,1.74807-1.74807.85565-.43597,1.97575-.43597,4.21596-.43597h3.2c2.2402,0,3.3603,0,4.216.43597.7526.38349,1.3645.99542,1.748,1.74807.436.85565.436,1.97575.436,4.21596v3.2c0,2.2402,0,3.3603-.436,4.216-.3835.7526-.9954,1.3645-1.748,1.748-.8557.436-1.9758.436-4.216.436h-3.2c-2.24021,0-3.36031,0-4.21596-.436-.75265-.3835-1.36457-.9954-1.74807-1.748-.43597-.8557-.43597-1.9758-.43597-4.216v-3.2Z" style="fill: #fff; stroke-width: 0px;"/>
      </g>
    </mask>
  </defs>
  <path d="M1,7.4c0-2.24021,0-3.36031.43597-4.21596.38349-.75265.99542-1.36457,1.74807-1.74807.85565-.43597,1.97575-.43597,4.21596-.43597h3.2c2.2402,0,3.3603,0,4.216.43597.7526.38349,1.3645.99542,1.748,1.74807.436.85565.436,1.97575.436,4.21596v3.2c0,2.2402,0,3.3603-.436,4.216-.3835.7526-.9954,1.3645-1.748,1.748-.8557.436-1.9758.436-4.216.436h-3.2c-2.24021,0-3.36031,0-4.21596-.436-.75265-.3835-1.36457-.9954-1.74807-1.748-.43597-.8557-.43597-1.9758-.43597-4.216v-3.2Z" style="fill: #f7f7f7; stroke-width: 0px;"/>
  <g style="mask: url(#mask);">
    <path d="M0,5C0,2.23858,2.23858,0,5,0h8c2.7614,0,5,2.23858,5,5h-2c0-1.65685-1.3431-3-3-3H5c-1.65685,0-3,1.34315-3,3H0ZM18,14c0,2.7614-2.2386,5-5,5H5c-2.76142,0-5-2.2386-5-5l2-1c0,1.1046,1.34315,2,3,2h8c1.6569,0,3-.8954,3-2l2,1ZM5,19c-2.76142,0-5-2.2386-5-5V5C0,2.23858,2.23858,0,5,0v2c-1.65685,0-3,1.34315-3,3v8c0,1.1046,1.34315,2,3,2v4ZM13,0c2.7614,0,5,2.23858,5,5v9c0,2.7614-2.2386,5-5,5v-4c1.6569,0,3-.8954,3-2V5c0-1.65685-1.3431-3-3-3V0Z" style="fill: rgba(0, 0, 0, .26); stroke-width: 0px;"/>
  </g>
  <path d="M8.92066,6.15958l-3.87683,3.78587c-.06811.06652-.01842.178.07934.178h2.11085c.06108,0,.1106.04697.1106.10491v3.02326c0,.05794.04952.10491.1106.10491h3.08955c.06108,0,.1106-.04697.1106-.10491v-3.02326c0-.05794.04952-.10491.1106-.10491h2.11085c.09776,0,.14745-.11148.07934-.178l-3.87683-3.78587c-.04344-.04242-.11524-.04242-.15867,0Z" style="fill: none; stroke: gray;"/>
</svg>